<?xml version="1.0" standalone="no"?>
<!DOCTYPE svg PUBLIC "-//W3C//DTD SVG 20010904//EN"
 "http://www.w3.org/TR/2001/REC-SVG-20010904/DTD/svg10.dtd">
<svg version="1.0" xmlns="http://www.w3.org/2000/svg"
 width="423.000000pt" height="84.000000pt" viewBox="0 0 423.000000 84.000000"
 preserveAspectRatio="xMidYMid meet">

<g transform="translate(0.000000,84.000000) scale(0.100000,-0.100000)"
fill="#000000" stroke="none">
<path d="M597 556 c-15 -22 -14 -25 9 -46 13 -13 25 -22 27 -19 1 2 11 14 21
26 18 22 18 23 -5 42 -31 26 -34 26 -52 -3z"/>
<path d="M1503 548 c-18 -5 -45 -25 -62 -45 -28 -34 -31 -44 -31 -107 0 -58 4
-74 25 -102 58 -77 157 -86 217 -20 10 10 18 25 18 33 0 19 -37 16 -52 -5 -22
-30 -57 -40 -95 -27 -51 17 -62 40 -63 122 0 67 2 73 31 97 43 37 107 31 132
-11 7 -11 12 -11 23 -2 18 15 18 33 0 48 -21 17 -106 29 -143 19z"/>
<path d="M2065 552 c-3 -3 -5 -77 -5 -164 l0 -160 68 5 c97 7 123 16 160 55
30 32 32 39 32 106 0 65 -3 75 -30 108 -24 29 -40 38 -73 42 -77 10 -147 13
-152 8z m124 -38 c17 -4 42 -18 56 -32 21 -21 25 -34 25 -86 0 -50 -4 -66 -24
-89 -20 -23 -33 -28 -77 -30 l-54 -2 -3 109 c-1 61 0 116 2 123 6 14 27 16 75
7z"/>
<path d="M2807 548 c-23 -6 -47 -23 -63 -43 -22 -29 -25 -44 -25 -109 0 -87
12 -112 70 -144 69 -39 142 -21 189 49 21 29 23 44 20 106 -3 60 -7 76 -28 98
-14 15 -32 30 -40 35 -28 14 -85 18 -123 8z m114 -57 c26 -27 29 -36 29 -95 0
-54 -4 -69 -24 -93 -20 -23 -32 -28 -69 -28 -71 0 -87 21 -87 114 1 78 8 98
45 119 36 20 75 14 106 -17z"/>
<path d="M770 390 l0 -160 75 0 c41 0 87 5 102 12 67 29 83 95 34 142 l-29 28
19 33 c25 41 17 83 -18 96 -13 5 -60 9 -104 9 l-79 0 0 -160z m158 118 c7 -7
12 -24 12 -38 0 -38 -18 -50 -72 -50 l-48 0 0 50 0 50 48 0 c26 0 53 -5 60
-12z m18 -135 c7 -10 14 -30 14 -45 0 -35 -30 -55 -90 -60 l-45 -3 -3 49 c-5
71 0 76 59 76 38 0 55 -5 65 -17z"/>
<path d="M1164 533 c-3 -10 -10 -26 -15 -35 -5 -10 -9 -25 -9 -33 0 -8 -4 -23
-9 -33 -15 -29 -28 -65 -42 -112 -7 -25 -16 -49 -21 -55 -16 -18 -8 -35 17
-35 16 0 25 6 25 15 0 9 7 27 16 40 15 23 23 25 84 25 62 0 68 -2 78 -25 7
-14 12 -32 12 -40 0 -9 10 -15 26 -15 21 0 25 3 19 18 -4 9 -10 29 -13 45 -2
15 -8 30 -13 33 -5 3 -9 16 -9 29 0 13 -4 27 -10 30 -5 3 -10 15 -10 26 0 19
-4 28 -28 76 -7 13 -12 32 -12 43 0 17 -7 20 -40 20 -30 0 -42 -5 -46 -17z
m60 -65 c9 -17 16 -38 16 -48 0 -9 5 -21 10 -26 22 -22 -1 -44 -46 -44 -47 0
-68 20 -45 43 6 6 11 18 11 27 0 17 28 80 35 80 2 0 11 -14 19 -32z"/>
<path d="M1743 393 c5 -151 6 -158 26 -161 19 -3 21 1 21 60 0 86 10 100 47
62 15 -16 46 -50 67 -76 26 -33 47 -48 63 -48 26 0 29 6 11 25 -13 12 -71 84
-95 114 -22 29 -14 54 37 112 28 32 50 60 50 63 0 17 -50 3 -63 -17 -28 -44
-95 -112 -103 -105 -4 4 -6 35 -5 68 l2 60 -31 0 -32 0 5 -157z"/>
<path d="M2410 391 l0 -161 25 0 c24 0 25 2 25 71 l0 70 43 -3 c44 -3 55 -16
88 -105 7 -21 18 -33 30 -33 11 0 19 2 19 5 0 13 -33 104 -46 128 -15 27 -15
30 10 56 30 31 34 75 10 106 -13 17 -29 21 -109 23 l-95 4 0 -161z m151 119
c13 -7 19 -21 19 -45 0 -41 -24 -58 -78 -53 -35 3 -37 5 -40 42 -2 21 -1 44 2
52 6 17 68 19 97 4z"/>
<path d="M3090 390 l0 -160 25 0 c24 0 25 2 25 65 0 72 0 72 89 77 34 2 48 9
62 28 35 48 34 74 -4 114 -34 36 -35 36 -116 36 l-81 0 0 -160z m163 99 c17
-24 18 -30 6 -55 -13 -26 -20 -29 -67 -32 l-52 -3 0 54 c0 29 3 57 7 61 4 4
25 6 47 4 28 -2 44 -10 59 -29z"/>
<path d="M3400 389 c0 -147 1 -160 18 -157 22 4 30 58 31 206 l1 112 -25 0
-25 0 0 -161z"/>
<path d="M3552 393 c3 -139 5 -158 20 -161 14 -3 18 7 20 65 l3 68 63 3 c46 2
62 7 62 17 0 11 -12 15 -46 15 -65 0 -84 13 -84 58 0 52 14 62 87 62 49 0 63
3 63 15 0 12 -17 15 -96 15 l-95 0 3 -157z"/>
<path d="M3794 526 c8 -14 25 -41 36 -60 11 -20 29 -52 40 -71 14 -26 20 -54
20 -100 0 -63 1 -65 25 -65 24 0 25 2 25 70 0 51 5 79 20 105 11 19 29 52 41
73 11 20 25 41 30 46 15 17 10 26 -15 26 -14 0 -26 -7 -30 -17 -7 -22 -39 -77
-56 -98 -20 -24 -34 -8 -84 92 -7 16 -20 23 -40 23 -28 0 -28 0 -12 -24z"/>
<path d="M392 475 c-6 -14 -16 -25 -21 -25 -5 0 -19 -13 -31 -30 l-21 -30 32
-47 c18 -27 36 -50 39 -53 4 -3 9 -13 13 -22 7 -19 27 -25 27 -9 0 15 91 111
105 111 26 0 25 30 -3 44 -15 8 -42 28 -60 45 -19 17 -38 29 -43 26 -5 -4 -9
-1 -9 4 0 20 -17 11 -28 -14z"/>
<path d="M593 274 c-13 -14 -23 -27 -23 -29 0 -6 50 -55 57 -55 6 0 53 48 53
55 0 8 -51 55 -58 54 -4 -1 -17 -12 -29 -25z"/>
</g>
</svg>
